<?xml version="1.0" standalone="no"?><!DOCTYPE svg PUBLIC "-//W3C//DTD SVG 1.1//EN" "http://www.w3.org/Graphics/SVG/1.1/DTD/svg11.dtd"><svg t="1481359753278" class="icon" style="" viewBox="0 0 1024 1024" version="1.1" xmlns="http://www.w3.org/2000/svg" p-id="52085" xmlns:xlink="http://www.w3.org/1999/xlink" width="32" height="32"><defs><style type="text/css"></style></defs><path d="M511.999488 63.947428c-247.452835 0-448.052572 200.599737-448.052572 448.052572 0 247.450788 200.598714 448.051549 448.052572 448.051549 247.451812 0 448.052572-200.599737 448.052572-448.051549C960.052061 264.548188 759.4513 63.947428 511.999488 63.947428zM370.943892 279.256168c14.20656 0 25.710568-9.217942 25.710568-29.80277 0-1.599428-0.182149-3.120061-0.320295-4.66116l5.322216 0c-0.1361 1.541099-0.320295 3.061732-0.320295 4.66116 0 20.584827 11.510148 29.80277 25.704428 29.80277 0.806365 0 0.806365 4.66116 0 4.66116-14.19428 0-25.704428 9.219989-25.704428 29.806863l-4.680603 0c0 0 0.657986-14.743796-6.069229-21.469987-0.204661-0.204661-0.405229-0.402159-0.608867-0.592494-9.486048-9.035794-19.035542-7.743358-19.035542-7.743358S370.143667 279.256168 370.943892 279.256168zM318.35414 391.649981c23.509437 0.086981 40.322357-16.222473 40.322357-45.766346 0-2.270716-0.132006-4.488221-0.323365-6.682189l7.364735 0c-0.195451 2.196015-0.326435 4.412496-0.326435 6.682189 0.00307 28.454052 12.892635 44.6315 42.212404 45.851281l0.035816 6.324032c-34.246989 0.815575-42.25129 23.162536-42.25129 46.538943l-6.711865 0c0-29.538757-3.971451-45.771463-40.322357-45.771463L318.35414 391.649981zM380.021641 736.436632c-1.907443 1.876744-3.937682 3.637854-6.068206 5.275143l-0.140193 0.119727c0.00307-0.005117 0.00614-0.013303 0.00614-0.020466-5.626137 4.291746-11.961426 7.694239-18.818601 9.976212-6.446829 2.149966-13.340843 3.311419-20.507056 3.311419-14.437827 0-27.774577-4.718465-38.558178-12.694113-0.321318-0.239454-0.639566-0.491187-0.959861-0.740874l-27.462468 27.309996-19.008936-18.910699 28.510334-28.358885-0.592494-0.591471-0.240477-2.407839c-0.300852-0.618077-0.593518-1.232061-0.873903-1.862417-3.664459-8.124028-5.700839-17.142425-5.700839-26.631544 0-4.919033 0.549515-9.701966 1.584078-14.305821 2.233877-9.91379 6.732331-18.964934 12.925381-26.586518 2.110057-2.596128 4.41352-5.02648 6.891967-7.269567l155.070798-163.467025 107.511619 106.956987L380.021641 736.436632zM574.821279 559.390333 465.641671 450.782753c-3.818979-13.542434-6.010901-27.76639-6.010901-42.513256 0-33.07735 10.331299-63.7223 27.869744-89.041966l219.564671 218.422661c-25.449625 17.45658-56.256258 27.721365-89.503477 27.721365C602.729909 565.371558 588.441485 563.189869 574.821279 559.390333zM775.343245 617.135502c-1.111311-0.143263-2.225691-0.23843-3.360538-0.23843-20.412912 0-36.963866 16.468067-36.963866 46.004777l-6.720052 0c0-29.53671-16.545838-46.004777-36.960797-46.004777-1.13587 0-2.255367 0.096191-3.365654 0.23843l0-7.1744c1.110287 0.143263 2.229784 0.246617 3.365654 0.246617 20.414959 0 36.960797-16.471137 36.960797-46.01194 0-2.272763-0.12996-4.493338-0.320295-6.688329l7.361665 0c-0.191358 2.196015-0.321318 4.415566-0.321318 6.688329 0 29.540803 16.553001 46.01194 36.963866 46.01194 1.134847 0 2.249227-0.104377 3.360538-0.246617L775.343245 617.135502zM732.550627 515.730974l-223.019353-221.855854c28.265764-26.421766 66.191538-42.719964 108.034529-42.719964 87.218434 0 157.927869 70.338998 157.927869 157.11434C775.493671 449.889407 759.108492 487.617683 732.550627 515.730974z" p-id="52086" fill="#707070"></path></svg>