<?xml version="1.0" standalone="no"?><!DOCTYPE svg PUBLIC "-//W3C//DTD SVG 1.1//EN" "http://www.w3.org/Graphics/SVG/1.1/DTD/svg11.dtd"><svg t="1481359336730" class="icon" style="" viewBox="0 0 1024 1024" version="1.1" xmlns="http://www.w3.org/2000/svg" p-id="50498" xmlns:xlink="http://www.w3.org/1999/xlink" width="32" height="32"><defs><style type="text/css"></style></defs><path d="M509.853104 63.880913c-248.41065 0-449.7881 201.37745-449.7881 449.7881s201.37745 449.7881 449.7881 449.7881S959.641203 762.079662 959.641203 513.669012 758.264776 63.880913 509.853104 63.880913zM441.890222 510.630816l17.049305 221.687008c0.38988 2.527566 0.595564 5.115508 0.595564 7.754614 0 27.78174-22.518876 50.29857-50.300616 50.29857-27.782763 0-50.315966-22.51683-50.315966-50.29857 0-2.639107 0.203638-5.227048 0.595564-7.754614l17.058514-221.665519c-59.733453-11.418051-93.104491-52.214199-93.104491-72.451102 0-57.44534 25.148773-176.066995 25.148773-176.066995l0-12.592806c0-6.925736 5.631254-12.574387 12.574387-12.574387 6.946202 0 12.57541 5.64865 12.57541 12.574387l0 6.30152 0 132.059712c0 6.943133 1.829671 25.148773 25.148773 25.148773 24.12649 0 25.169239-18.202571 25.169239-25.148773L384.084679 243.255233l25.151843-6.290263 25.148773 6.290263 0 144.646378c0 6.943133 1.827625 25.148773 25.148773 25.148773 24.124444 0 25.167193-18.202571 25.167193-25.148773L484.701261 255.841899l0-6.30152c0-6.925736 5.630231-12.574387 12.574387-12.574387 6.946202 0 12.57541 5.64865 12.57541 12.574387 0 4.726651 0.002047 12.594853 0.002047 12.594853s25.148773 119.772874 25.148773 176.066995C535.003923 459.427644 500.740562 499.329423 441.890222 510.630816zM736.238111 563.987025c0 45.859467-50.301639 50.301639-50.301639 50.301639l0 125.783775-2.153036 0c1.38965 3.932566 2.153036 8.16496 2.153036 12.574387 0 20.835538-16.887622 37.72623-37.740556 37.72623-20.835538 0-37.724183-16.890692-37.724183-37.72623 0-4.409426 0.763386-8.637728 2.15406-12.574387l-2.15406 0L610.471732 287.302425l0-25.167193c0-13.892405 11.256368-25.170263 25.148773-25.170263 9.157567 0 17.176195 4.903683 21.578458 12.224416 31.538297 28.886911 77.673034 107.090017 78.996169 214.179011l0.041956 0L736.237087 563.987025z" p-id="50499" fill="#8a8a8a"></path></svg>