<?xml version="1.0" standalone="no"?><!DOCTYPE svg PUBLIC "-//W3C//DTD SVG 1.1//EN" "http://www.w3.org/Graphics/SVG/1.1/DTD/svg11.dtd"><svg t="1481354769976" class="icon" style="" viewBox="0 0 1024 1024" version="1.1" xmlns="http://www.w3.org/2000/svg" p-id="30254" xmlns:xlink="http://www.w3.org/1999/xlink" width="18" height="18"><defs><style type="text/css"></style></defs><path d="M894.196938 928.149999H720.718c-19.154847 0-34.691283-15.53234-34.691283-34.697426 0-19.162014 15.536436-34.694354 34.691283-34.694354h34.701521l-13.329963-66.696914L635.08535 685.064265c-0.384981 0.010239-0.704433 0.225255-1.099652 0.225255-28.737389 0-52.045115-23.300558-52.045115-52.04102 0-28.744557 23.307726-52.041019 52.045115-52.041019 28.744557 0 52.041019 23.297487 52.041019 52.041019 0 0.389076-0.219111 0.7116-0.219111 1.103749l106.993968 106.99704 66.692819 13.325867v-34.694354c0-19.157918 15.536436-34.691283 34.701521-34.691282 19.157918 0 34.694354 15.53234 34.694354 34.691282v173.471771c0 19.165086-15.535412 34.697426-34.69333 34.697426z m0-589.802998c-19.165086 0-34.701521-15.53234-34.701521-34.694354v-34.694354l-66.88019 12.393108-106.993969 106.99704c0.027645 0.717744 0.405459 1.318764 0.405459 2.036508 0 28.744557-23.297487 52.045115-52.041019 52.045115-28.737389 0-52.045115-23.300558-52.045115-52.045115 0-28.737389 23.307726-52.037948 52.045115-52.037948 0.059385 0 0.107508 0.03174 0.166893 0.031741l107.212056-107.205913 14.054874-66.300671h-34.701521c-19.154847 0-34.691283-15.529269-34.691283-34.694354 0-19.157918 15.536436-34.691283 34.691283-34.691282h169.279984c0.815013-0.059385 1.58907 0.37167 2.404083 0.360407 0.62457-0.03174 1.159038-0.360408 1.793847-0.360407 6.591774 0 12.410514 2.331387 17.65895 5.526932 1.637193 0.981906 3.236502 1.936167 4.687347 3.163806 1.44675 1.238901 2.668245 2.550498 3.889741 4.007487 1.578831 1.831731 2.858688 3.820116 4.020797 5.956965 0.694194 1.311597 1.456989 2.504424 1.98429 3.910218 1.461084 3.788376 2.453229 7.80303 2.453229 12.125874v173.474843c0 19.16099-15.535412 34.694354-34.69333 34.694354zM391.122146 685.28952c-0.714672 0-1.318764-0.377814-2.033436-0.409555L282.094741 791.87803l-12.400275 66.880189h34.691283c19.168157 0 34.694354 15.53234 34.694354 34.694354 0 19.165086-15.526197 34.697426-34.694354 34.697426H130.918073c-4.325915 0-8.337498-0.992145-12.128945-2.449133-1.398627-0.530373-2.601693-1.291119-3.910218-1.98429-2.133777-1.166205-4.122162-2.441966-5.956965-4.017726-1.456989-1.221495-2.768586-2.453229-4.010559-3.892812-1.221495-1.449822-2.171661-3.053226-3.157662-4.694514-3.195546-5.24946-5.526933-11.064105-5.526933-17.658951 0-0.631737 0.326619-1.159038 0.357336-1.783608 0.010239-0.82218-0.416721-1.58907-0.357336-2.408178V719.980802c0-19.157918 15.53234-34.691283 34.691282-34.691282s34.691283 15.53234 34.691283 34.691282v34.694354l66.297598-14.047706 107.212057-107.212057c0-0.05529-0.037884-0.107508-0.037884-0.166893 0-28.744557 23.304654-52.041019 52.041019-52.041019 28.747628 0 52.041019 23.297487 52.04102 52.041019 0 28.740461-23.293391 52.041019-52.04102 52.04102z m0-242.859456c-28.737389 0-52.041019-23.300558-52.041019-52.045115 0-0.389076 0.218088-0.707505 0.225255-1.099653L232.315485 282.287232l-66.707153-13.329963v34.694354c0 19.162014-15.53234 34.694354-34.691283 34.694354s-34.691283-15.53234-34.691282-34.694354V133.254579c-0.048123-0.631737 0.246756-1.238901 0.239589-1.869614-0.010239-0.422865-0.239589-0.780201-0.239589-1.207161 0-1.963812 0.804774-3.663462 1.109891-5.540243 0.399315-2.438895 0.559041-4.842978 1.449822-7.168222 1.16211-2.913978 3.028653-5.33649 4.884957-7.798934 0.992145-1.332075 1.377126-2.928312 2.588382-4.14264 7.625898-7.615659 17.770554-10.70984 27.735006-10.04022h170.3909c19.168157 0 34.694354 15.53234 34.694354 34.691283 0 19.165086-15.526197 34.694354-34.694354 34.694354h-34.691283l13.329963 66.699986 106.993969 106.99704c0.389076-0.010239 0.714672-0.222183 1.103748-0.222183 28.747628 0 52.041019 23.300558 52.04102 52.037948 0.001024 28.742509-23.292367 52.044091-52.039996 52.044091z" fill="#515151" p-id="30255"></path></svg>