<?xml version="1.0" standalone="no"?><!DOCTYPE svg PUBLIC "-//W3C//DTD SVG 1.1//EN" "http://www.w3.org/Graphics/SVG/1.1/DTD/svg11.dtd"><svg t="1481429737558" class="icon" style="" viewBox="0 0 1024 1024" version="1.1" xmlns="http://www.w3.org/2000/svg" p-id="15243" xmlns:xlink="http://www.w3.org/1999/xlink" width="32" height="32"><defs><style type="text/css"></style></defs><path d="M690.570513 508.652765l29.746488 0 0 194.814987-29.746488 0 0-194.814987Z" p-id="15244" fill="#707070"></path><path d="M366.725824 703.467753l293.081035 0L659.806859 336.997244 366.725824 336.997244 366.725824 703.467753zM412.698878 381.314589 611.296005 381.314589c9.639544 0 16.457834 5.385661 16.457834 14.520715 0 9.139148-6.818289 15.548114-16.457834 15.548114L412.698878 411.383418c-9.636474 0-16.45374-6.40999-16.45374-15.548114C396.245138 386.700249 403.062404 381.314589 412.698878 381.314589zM412.698878 447.062012 611.296005 447.062012c9.639544 0 16.457834 5.385661 16.457834 14.520715 0 9.139148-6.818289 15.548114-16.457834 15.548114L412.698878 477.130841c-9.636474 0-16.45374-6.40999-16.45374-15.548114C396.245138 452.447672 403.062404 447.062012 412.698878 447.062012zM412.698878 510.762823 611.296005 510.762823c9.639544 0 16.457834 5.384637 16.457834 14.520715 0 9.139148-6.818289 15.549138-16.457834 15.549138L412.698878 540.832675c-9.636474 0-16.45374-6.411013-16.45374-15.549138C396.245138 516.14746 403.062404 510.762823 412.698878 510.762823z" p-id="15245" fill="#707070"></path><path d="M306.215682 508.652765l29.747511 0 0 194.814987-29.747511 0 0-194.814987Z" p-id="15246" fill="#707070"></path><path d="M511.999488 64.278979c-247.26864 0-447.719998 200.451358-447.719998 447.723068 0 247.26557 200.452381 447.717951 447.719998 447.717951 247.267617 0 447.719998-200.453405 447.719998-447.717951C959.719486 264.729314 759.267105 64.278979 511.999488 64.278979zM767.894599 733.295082 256.106424 733.295082c-9.891278 0-16.917298-5.560646-16.917298-14.911618 0-9.356089 7.02602-14.915711 16.917298-14.915711l19.35072 0L275.457144 495.309876c0-9.353019 8.045233-16.960277 17.937534-16.960277l42.568515 0 0-142.648884c0-16.298198 14.024411-29.556153 31.263028-29.556153l129.899512 0 0-41.322128-52.391231 0 0-30.851659 52.391231 0 0-47.659463 29.742395 0 0 47.659463 52.395324 0 0 30.851659-52.395324 0 0 41.322128 132.441405 0c17.23657 0 31.259958 13.257955 31.259958 29.556153l-0.054235 142.602835 42.571584 0c9.892301 0 17.938558 7.609305 17.938558 16.95823l0.054235 208.205972 16.812921 0 0.002047 0c9.890254 0 16.914228 5.562692 16.914228 14.915711C784.809851 727.734436 777.784854 733.295082 767.894599 733.295082z" p-id="15247" fill="#707070"></path></svg>