<?xml version="1.0" standalone="no"?><!DOCTYPE svg PUBLIC "-//W3C//DTD SVG 1.1//EN" "http://www.w3.org/Graphics/SVG/1.1/DTD/svg11.dtd"><svg t="1481429838076" class="icon" style="" viewBox="0 0 1024 1024" version="1.1" xmlns="http://www.w3.org/2000/svg" p-id="16160" xmlns:xlink="http://www.w3.org/1999/xlink" width="32" height="32"><defs><style type="text/css"></style></defs><path d="M510.54537 31.907711c264.333294 0 478.617705 214.282365 478.617705 478.615659 0 264.330224-214.284411 478.618729-478.617705 478.618729-264.333294 0-478.616682-214.288504-478.616682-478.618729C31.928688 246.190075 246.211053 31.907711 510.54537 31.907711L510.54537 31.907711zM527.40434 118.291127l0 663.059438L673.083234 781.350564 673.083234 213.452463 527.40434 118.291127 527.40434 118.291127zM684.482865 527.621792l0 250.77551 178.384783 0L862.867648 584.602551 684.482865 527.621792 684.482865 527.621792zM759.805364 723.854059 759.805364 680.737052l-54.515614-19.792788 0 47.039339L759.805364 723.854059 759.805364 723.854059zM759.805364 641.579217l0-43.093471-54.515614-19.799952 0 47.01785L759.805364 641.579217 759.805364 641.579217zM828.187801 743.654011l0-43.090401L773.644557 680.737052l0 47.051619L828.187801 743.654011 828.187801 743.654011zM828.187801 661.411915l0.013303-43.12417-54.536081-19.803022 0 47.053666L828.187801 661.411915 828.187801 661.411915zM330.680886 231.281527l0 376.531656-25.758664 16.829294L304.922223 498.884284l-16.346293 6.757914 0-125.447107-118.966509 52.52733 0 122.19197-11.386328 4.725628 0 221.712591 352.516706 0L510.739798 116.321262 330.680886 231.281527 330.680886 231.281527zM180.515818 456.649368l0 47.564295 40.156582-17.848507 0-48.301076L180.515818 456.649368 180.515818 456.649368zM183.489546 534.945595l0 47.550992 40.157605-17.830087L223.647151 516.342912 183.489546 534.945595 183.489546 534.945595zM224.847489 708.475813 224.847489 660.178831l-40.124859 18.571984 0 47.582715L224.847489 708.475813 224.847489 708.475813zM224.847489 634.861212l0-48.2714-40.124859 18.568914 0 47.579645L224.847489 634.861212 224.847489 634.861212zM230.559585 433.350732l0 47.580668 40.151465-17.839297 0-48.324612L230.559585 433.350732 230.559585 433.350732zM233.546615 511.629563l0 47.606251 40.137139-17.86488 0-48.323589L233.546615 511.629563 233.546615 511.629563zM278.397103 685.450401l0-48.290843L238.239498 655.737682l0 47.584762L278.397103 685.450401 278.397103 685.450401zM278.397103 611.871615l0-48.298006-40.157605 18.568914 0 47.566342L278.397103 611.871615 278.397103 611.871615zM406.971433 620.23919l0-52.696176-55.516408 35.914978 0 51.52142L406.971433 620.23919 406.971433 620.23919zM406.971433 533.167089l0-52.722782-55.516408 35.914978 0 51.53677L406.971433 533.167089 406.971433 533.167089zM406.971433 446.055079 406.971433 393.310807l-55.516408 35.93749 0 51.560306L406.971433 446.055079 406.971433 446.055079zM406.971433 358.966605l0-52.738132-55.516408 35.93749L351.455025 393.699664 406.971433 358.966605 406.971433 358.966605zM406.971433 271.870967l0-52.735062-55.516408 35.931351 0 51.547003L406.971433 271.870967 406.971433 271.870967zM489.232972 568.769958 489.232972 514.275833l-64.423265 41.712007 0 53.082986L489.232972 568.769958 489.232972 568.769958zM489.232972 481.662041l0-54.497195-64.423265 41.708937 0 53.123918L489.232972 481.662041 489.232972 481.662041zM489.232972 394.579707l0-54.510498-64.423265 41.721217 0 53.107545L489.232972 394.579707 489.232972 394.579707zM489.232972 307.481l0-54.510498-64.423265 41.72531 0 53.107545L489.232972 307.481 489.232972 307.481zM489.232972 220.370013l0-54.507428-64.423265 41.708937 0 53.120848L489.232972 220.370013z" p-id="16161" fill="#707070"></path></svg>