<?xml version="1.0" standalone="no"?><!DOCTYPE svg PUBLIC "-//W3C//DTD SVG 1.1//EN" "http://www.w3.org/Graphics/SVG/1.1/DTD/svg11.dtd"><svg t="1481359248638" class="icon" style="" viewBox="0 0 1024 1024" version="1.1" xmlns="http://www.w3.org/2000/svg" p-id="49538" xmlns:xlink="http://www.w3.org/1999/xlink" width="26" height="26"><defs><style type="text/css"></style></defs><path d="M62.486146 681.241542l74.556043 74.256214c-16.876366 4.173043-32.869618 12.853749-46.061059 26.053376-38.575574 38.610366-38.575574 101.206006 0 139.811256 38.58069 38.610366 101.116979 38.610366 139.692552 0 13.311167-13.322423 22.023596-29.503964 26.146497-46.568618l77.447906 77.135798c44.403303-76.060303 34.646078-174.888146-30.765701-240.041028C238.087537 646.73975 138.858558 637.016295 62.486146 681.241542zM171.788551 480.499565c2.153036-4.758374 5.227048-9.274224 9.208732-13.257955l59.164494-59.190077-59.387575-58.970066c-17.904789-17.786085-16.909112-47.610344 2.234901-66.620303l103.966886-103.243409c19.144012-19.004843 49.176003-19.996426 67.085908-2.210341l58.736752 58.332547 58.431807-58.456367c3.823072-3.824095 8.139378-6.80294 12.68695-8.94165l-78.444607-78.18571c-36.994566-36.865629-94.228081-39.606043-127.838573-6.105045L86.481653 274.176476c-33.605376 33.490765-30.863938 90.535993 6.130627 127.411855L171.788551 480.499565zM911.568325 414.503479c53.764508-53.834092 55.296397-139.588175 3.423983-191.534268L789.6813 97.484242c-51.876508-51.940976-137.50677-50.404993-191.267185 3.434216L252.547877 448.593901c-53.759391 53.839209-55.291281 139.593292-3.423983 191.534268l125.316124 125.483946c51.876508 51.940976 137.50677 50.41011 191.276395-3.429099L911.568325 414.503479zM931.054121 643.176598l-86.841857-86.87972-67.3622 67.161632c5.741771 1.839905 11.084453 4.997827 15.57165 9.489118l57.818847 57.843406c15.957437 15.96767 15.07023 42.75271-1.992377 59.820434l-92.672656 92.716658c-17.062608 17.072841-43.838438 17.960047-59.795874 1.987261l-57.81373-57.83829c-4.590552-4.593622-7.780197-10.082636-9.600659-15.975856l-67.482951 67.282383 87.326904 87.369883c33.43653 33.450856 88.677669 32.410154 123.393331-2.318812l157.131737-157.206438C963.455065 731.894176 964.490651 676.627455 931.054121 643.176598z" p-id="49539" fill="#cc3f2c"></path></svg>