<?xml version="1.0" standalone="no"?><!DOCTYPE svg PUBLIC "-//W3C//DTD SVG 1.1//EN" "http://www.w3.org/Graphics/SVG/1.1/DTD/svg11.dtd"><svg t="1481352182736" class="icon" style="" viewBox="0 0 1024 1024" version="1.1" xmlns="http://www.w3.org/2000/svg" p-id="4796" xmlns:xlink="http://www.w3.org/1999/xlink" width="20" height="20"><defs><style type="text/css"></style></defs><path d="M512.050 587.284c-17.542 0-34.345-3.958-47.339-11.172l-296.107-164.78c-26.077-14.525-29.97-37.665-29.953-50.161 0-12.518 3.881-35.644 29.953-50.148l296.077-164.611c25.967-14.457 68.652-14.428 94.576 0.007l296.131 164.75c26.092 14.521 29.953 37.66 29.953 50.178 0 12.501-3.869 35.641-29.953 50.127l-296.067 164.629c-12.965 7.222-29.772 11.18-47.271 11.18zM195.966 361.184l284.664 158.372c15.846 8.822 46.963 8.822 62.796 0.030l284.639-158.25-284.677-158.384c-15.854-8.813-46.959-8.829-62.792-0.012l-284.631 158.245z" fill="#2c2c2c" p-id="4797"></path><path d="M823.167 519.83l-279.741 155.537c-15.842 8.817-46.95 8.817-62.796-0.030l-279.526-155.508h-62.388c0.603 12.943 5.695 33.83 29.881 47.297l296.114 164.735c12.994 7.218 29.792 11.239 47.339 11.239 17.5 0 34.303-3.982 47.275-11.213l296.067-164.607c24.3-13.534 29.342-34.509 29.886-47.449h-62.113z" fill="#2c2c2c" p-id="4798"></path><path d="M827.79 653.725l0.271 0.165-284.639 158.258c-15.842 8.829-46.95 8.792-62.796-0.030l-284.664-158.393h-57.316c0 12.543 3.902 35.682 29.953 50.178l296.114 164.742c12.994 7.227 29.792 11.213 47.339 11.213 17.5 0 34.303-3.986 47.275-11.184l296.067-164.632c26.093-14.508 29.953-37.611 29.953-50.119v-0.194h-57.556z" fill="#2c2c2c" p-id="4799"></path></svg>