<?xml version="1.0" standalone="no"?><!DOCTYPE svg PUBLIC "-//W3C//DTD SVG 1.1//EN" "http://www.w3.org/Graphics/SVG/1.1/DTD/svg11.dtd"><svg t="1481207087676" class="icon" style="" viewBox="0 0 1032 1024" version="1.1" xmlns="http://www.w3.org/2000/svg" p-id="6560" xmlns:xlink="http://www.w3.org/1999/xlink" width="32.25" height="32"><defs><style type="text/css"></style></defs><path d="M397.939 464.927l115.87 144.84 117.682-144.84c10.864-9.053 16.295-18.105 16.295-18.105 19.915-27.157 32.589-59.746 32.589-97.767 0-88.714-74.229-161.136-166.565-161.136s-166.565 72.42-166.565 161.136c0 36.209 12.674 70.609 34.399 97.767 3.622 5.432 10.864 10.864 16.295 18.105zM512 238.617c56.125 0 103.198 41.641 110.44 97.767 0 5.432 1.81 10.863 1.81 16.295 0 25.347-9.053 48.883-21.726 66.987l-88.714 101.388s-74.229-81.472-92.334-103.198l1.81 1.81c-7.242-9.053-5.432-9.053-1.81-1.81-12.674-18.105-19.915-41.641-19.915-65.178-1.81-63.367 48.883-114.061 110.44-114.061z" fill="#d81e06" p-id="6561"></path><path d="M839.698 636.924c1.81 1.81 1.81 3.622 3.622 3.622l-3.622-3.622v-248.038c0-14.484-12.674-27.157-27.158-27.157s-27.158 12.674-27.158 27.157v249.848l-191.913 124.924-130.355-117.682-1.81-3.621c0 1.81 1.81 1.81 1.81 3.621l-3.621-1.81c-10.863-10.863-28.968-10.863-41.641-1.81v0l-177.428 92.334v-343.993c0-14.484-12.674-27.157-27.158-27.157s-27.158 12.674-27.158 27.157v394.687c0 1.81 1.81 5.432 1.81 7.242l5.432 5.432c5.432 3.622 10.864 7.242 18.105 7.242 1.81 0 5.432 0 7.242-1.81 3.622 0 7.242-1.81 9.053-3.622l204.586-106.819 130.355 119.493 3.621 7.242c-1.81-1.81-1.81-3.621-3.621-5.432 10.863 10.864 27.158 14.484 39.832 5.432l215.448-139.408s1.81 0 1.81-1.81c7.242-3.622 12.674-10.863 12.674-19.915 1.81-5.432 1.81-10.863 0-14.484v-7.242z" fill="#d81e06" p-id="6562"></path><path d="M193.353 794.437c0-1.81-1.81-3.621-1.81-5.432l-3.622-3.622 5.432 9.053z" fill="#d81e06" p-id="6563"></path></svg>