<?xml version="1.0" standalone="no"?><!DOCTYPE svg PUBLIC "-//W3C//DTD SVG 1.1//EN" "http://www.w3.org/Graphics/SVG/1.1/DTD/svg11.dtd"><svg t="1481356816586" class="icon" style="" viewBox="0 0 1024 1024" version="1.1" xmlns="http://www.w3.org/2000/svg" p-id="41461" xmlns:xlink="http://www.w3.org/1999/xlink" width="16" height="16"><defs><style type="text/css"></style></defs><path d="M520.822 440.579c-16.607 0-32.823 6.747-44.5 18.422-11.677 11.677-18.422 28.023-18.422 44.5 0 16.607 6.747 32.823 18.422 44.5 11.677 11.677 28.023 18.422 44.5 18.422 16.607 0 32.823-6.747 44.5-18.422 11.677-11.677 18.422-28.023 18.422-44.5 0-16.607-6.747-32.823-18.422-44.5-11.677-11.677-27.893-18.422-44.5-18.422zM309.738 440.579c-16.607 0-32.823 6.747-44.5 18.422s-18.422 28.023-18.422 44.5c0 16.607 6.747 32.823 18.422 44.5 11.677 11.677 28.023 18.422 44.5 18.422 16.607 0 32.823-6.747 44.5-18.422 11.677-11.677 18.422-28.023 18.422-44.5 0-16.607-6.747-32.823-18.422-44.5-11.677-11.677-27.893-18.422-44.5-18.422zM731.906 440.579c-16.607 0-32.823 6.747-44.5 18.422s-18.422 28.023-18.422 44.5c0 16.607 6.747 32.823 18.422 44.5 11.677 11.677 28.023 18.422 44.5 18.422 16.607 0 32.823-6.747 44.5-18.422 11.677-11.677 18.422-28.023 18.422-44.5 0-16.607-6.747-32.823-18.422-44.5-11.677-11.677-27.893-18.422-44.5-18.422z" fill="" p-id="41462"></path><path d="M967.122 320.182c-24.91-58.771-60.458-111.705-105.867-156.983S763.043 82.242 704.272 57.332C643.425 31.514 578.686 18.541 512 18.541c-66.686 0-131.425 13.104-192.272 38.791-58.771 24.91-111.705 60.458-156.983 105.867-45.408 45.408-80.957 98.212-105.867 156.983-25.818 60.847-38.791 125.586-38.791 192.272 0 66.686 13.104 131.425 38.791 192.272 24.91 58.771 60.458 111.705 105.867 156.983 45.408 45.408 98.212 80.957 156.983 105.867 60.847 25.689 125.586 38.791 192.272 38.791 66.686 0 131.425-13.104 192.272-38.791 58.771-24.91 111.705-60.458 156.983-105.867s80.957-98.212 105.867-156.983c25.818-60.847 38.791-125.586 38.791-192.272 0-66.686-12.974-131.425-38.791-192.272zM512 950.71c-241.702 0-438.256-196.684-438.256-438.256C73.744 270.752 270.428 74.198 512 74.198c241.702 0 438.256 196.684 438.256 438.256 0 241.702-196.554 438.256-438.256 438.256z" fill="" p-id="41463"></path></svg>