<?xml version="1.0" standalone="no"?><!DOCTYPE svg PUBLIC "-//W3C//DTD SVG 1.1//EN" "http://www.w3.org/Graphics/SVG/1.1/DTD/svg11.dtd"><svg t="1481429217753" class="icon" style="" viewBox="0 0 1024 1024" version="1.1" xmlns="http://www.w3.org/2000/svg" p-id="7445" xmlns:xlink="http://www.w3.org/1999/xlink" width="36" height="36"><defs><style type="text/css"></style></defs><path d="M511.790734 959.013917c-246.684332 0-446.673156-199.988824-446.673156-446.673156 0-246.699682 199.988824-446.673156 446.673156-446.673156 246.684332 0 446.673156 199.973474 446.673156 446.673156C958.463889 759.026116 758.475066 959.013917 511.790734 959.013917zM716.20024 511.852644l0-46.238091L716.20024 386.004401c0-34.748409-28.154223-62.931285-62.887282-62.931285L370.267487 323.073116c-34.718733 0-62.887282 28.182876-62.887282 62.931285l0 79.611176 0 46.238091 0 151.118789c0 23.452131 17.640776 42.437531 39.790238 43.635823 1.744737 22.593578 20.081361 40.426735 42.690288 40.426735 19.680225 0 36.093033-13.544481 41.209564-31.908734 22.713304 1.535983 48.544623 2.674922 75.470879 2.674922 31.243585 0 62.443168-1.52268 89.325421-3.431146 4.880147 18.764366 21.500687 32.663934 41.431621 32.663934 22.74298 0 41.180911-18.039865 42.73429-40.811498 20.404726-2.957355 36.167734-21.099551 36.167734-43.25106L716.20024 511.852644zM664.181493 508.334517c0 0-79.537498 11.577686-158.010757 11.577686-79.505775 0-146.755412-11.577686-146.755412-11.577686-12.006452 0-21.750373-9.788947-21.750373-21.8701l0-28.271904 0-32.18912 0-26.069749c0-25.728988 20.123316-46.578852 44.936445-46.578852l258.380722 0c24.811082 0 44.936445 20.849864 44.936445 46.578852l0 26.069749 0 32.18912 0 28.271904C685.91754 498.544547 676.186921 508.334517 664.181493 508.334517zM398.229329 565.335742c25.092491 0 45.423539 20.332071 45.423539 45.425585 0 20.656459-13.883195 37.897122-32.751938 43.412742-6.240121-3.593851-13.367449-5.826705-21.041222-5.826705-4.569062 0-8.872065 0.932232-12.998035 2.263553-14.254655-7.658424-24.057929-22.534226-24.057929-39.848567C352.804766 585.667813 373.136837 565.335742 398.229329 565.335742zM625.351116 565.335742c25.092491 0 45.424562 20.332071 45.424562 45.425585 0 16.782222-9.197476 31.273261-22.741957 39.139415-3.445472-0.916882-6.994298-1.554402-10.735505-1.554402-8.206916 0-15.791661 2.471284-22.313192 6.53688-20.079314-4.702092-35.05847-22.62223-35.05847-44.121893C579.927577 585.667813 600.258625 565.335742 625.351116 565.335742z" p-id="7446" fill="#e27227"></path></svg>