<?xml version="1.0" standalone="no"?><!DOCTYPE svg PUBLIC "-//W3C//DTD SVG 1.1//EN" "http://www.w3.org/Graphics/SVG/1.1/DTD/svg11.dtd"><svg t="1481354472051" class="icon" style="" viewBox="0 0 1024 1024" version="1.1" xmlns="http://www.w3.org/2000/svg" p-id="26562" xmlns:xlink="http://www.w3.org/1999/xlink" width="16" height="16"><defs><style type="text/css"></style></defs><path d="M574.569279 657.417551l110.309721 110.293611 68.137953-68.072506L642.444439 588.883898C623.256506 614.714156 600.449881 637.858083 574.569279 657.417551z" p-id="26563" fill="#1296db"></path><path d="M573.870511 652.829242l101.694936 101.353607 62.879068-62.617282L636.50793 589.788068C618.797076 613.545179 597.750461 634.834451 573.870511 652.829242z" p-id="26564" fill="#1296db"></path><path d="M749.445583 667.271793 652.581612 764.14684 910.905336 1022.556148 1007.824684 925.673046Z" p-id="26565" fill="#1296db"></path><path d="M749.445583 667.271793l-96.863971 96.875046 258.323724 258.409308c0 0 51.265823 0.081557 77.142397-29.833575 25.876574-29.915132 19.775945-67.050533 19.775945-67.050533L749.445583 667.271793z" p-id="26566" fill="#1296db"></path><path d="M108.882572 124.818252c-144.713482 144.585609-144.818196 379.108926-0.23158 523.823414s379.108926 144.818196 523.823414 0.23158 144.818196-379.108926 0.23158-523.823414S253.596054-19.767357 108.882572 124.818252zM591.883426 608.609499c-122.424387 122.315645-320.824209 122.229055-443.139854-0.195333C26.427926 485.990786 26.516531 287.589958 148.940918 165.274313c122.423381-122.314639 320.824209-122.227041 443.138847 0.19634C714.395411 287.89504 714.306806 486.294861 591.883426 608.609499z" p-id="26567" fill="#1296db"></path><path d="M593.055423 210.618729l-125.787335 10.785598 30.246392 34.701795c-0.166134 0.153044-0.333274 0.194326-0.485312 0.333274l-25.859457 21.778611c-2.943083 2.484957-6.273811 5.288084-12.58991-1.388475l-48.332809-55.495686c-17.00403-19.516173-61.644645-46.417741-95.388905-18.003853-33.744261 28.427984-13.575636 75.942207 3.414298 95.458379l108.381563 124.469342c6.093581 7.578715 2.748757 10.382849-0.194326 12.85371-2.956172 2.47086-6.259714 5.260899-12.604006-1.388475L305.140779 309.851867c-17.00403-19.516173-61.644645-46.417741-95.374809-18.002846-33.744261 28.413888-13.589732 75.955296 3.414298 95.458379l108.380557 124.469342c6.079485 7.551529 2.720564 10.396946-0.194326 12.839614-2.956172 2.484957-6.273811 5.30218-12.617095-1.401564l-60.395118-69.348211c-31.0096-35.603951-74.512451-30.843467-93.014705-15.255096l-26.262205 22.125981c-10.882257 9.175612-6.843699 31.356971 3.150498 42.836302 10.008294 11.52162 26.955939 13.395406 37.839203 4.233891l25.88765-21.820899c7.232351-5.538795 10.28619-2.040927 12.992658 1.082386l60.395118 69.348211c17.00403 19.530269 56.89725 40.975605 90.627414 12.548628 33.744261-28.399792 18.33612-70.486982 1.346186-90.003155L252.935547 354.520673c-6.079485-7.592811-2.748757-10.396946 0.18023-12.867806 2.943083-2.47086 6.273811-5.289091 12.618102 1.388475l108.713831 124.857994c17.00403 19.516173 56.89725 40.962516 90.627414 12.561717 33.730165-28.427984 18.323031-70.500071 1.33209-90.03034L358.040753 265.988556c-6.093581-7.564619-2.761846-10.368753 0.18023-12.867806 2.956172-2.47086 6.273811-5.274995 12.617095 1.41566l48.304616 55.495686c16.989934 19.502076 54.524056 38.227855 88.268317 9.813968l26.220924-22.111885c0.041282 0 0.041282-0.028192 0.069474-0.069474l30.204104 34.729987 30.148726-120.443873" p-id="26568" fill="#1296db"></path></svg>