<?xml version="1.0" standalone="no"?><!DOCTYPE svg PUBLIC "-//W3C//DTD SVG 1.1//EN" "http://www.w3.org/Graphics/SVG/1.1/DTD/svg11.dtd"><svg t="1481363144351" class="icon" style="" viewBox="0 0 1024 1024" version="1.1" xmlns="http://www.w3.org/2000/svg" p-id="57451" xmlns:xlink="http://www.w3.org/1999/xlink" width="32" height="32"><defs><style type="text/css"></style></defs><path d="M512.001 1.439c281.977 0 510.557 228.586 510.557 510.565 0 281.975-228.579 510.554-510.557 510.554-281.974 0-510.562-228.577-510.562-510.554 0-281.979 228.585-510.565 510.562-510.565v0zM517.408 660.923c-7.998-35.374-18.281-73.115-31.356-110.258l-75.774 51.918c-0.647 11.564-1.827 23.677-3.419 36.189l110.548 22.151zM426.645 425.358l-37.38 25.6c3.426 8.775 6.66 18.032 9.437 28.064l63.778 12.794c-10.193-22.348-21.6-43.795-34.423-63.545-0.205-0.385-0.754-1.481-1.411-2.913v0zM482.473 540.603c-4.575-12.545-9.548-24.972-14.841-37.216l-66.242-13.28c6.794 28.276 10.609 61.26 9.473 99.562l71.61-49.067zM291.788 364.742c-1.253 3.451-2.028 7.12-2.028 11.041 0 12.409 6.924 23.057 17.050 28.473-1.066 3.691-1.817 7.507-1.817 11.518 0 22.692 18.020 41.119 40.291 41.119 16.133 0 29.945-9.743 36.367-23.696 1.242 2.615 2.495 5.207 3.687 7.975l37.061-25.42c-0.802-1.857-1.467-3.366-1.729-3.878-2.378-4.966-4.351-9.925-6.038-14.91 4.61 2.67 9.888 4.353 15.594 4.353 17.454 0 31.578-14.443 31.578-32.227 0-17.774-14.126-32.236-31.578-32.236-8.787 0-16.731 3.691-22.459 9.598 3.415-47.085 34.050-89.371 81.749-113.106 44.093-21.911 93.877-17.908 132.973 6.094-38.82-55.302-112.158-75.779-174.162-44.895-36.314 18.042-61.339 50.089-72.178 86.66-0.16-27.369 7.187-51.238 27.818-73.458 3.247-3.449 6.662-6.828 10.309-10.001 37.194-32.637 86.388-41.627 130.202-28.503-51.369-43.481-127.376-44.269-179.666 1.635-30.085 26.335-46.322 62.961-48.237 100.369-24.702-37.729-70.512-57.835-116.299-46.659-52.621 12.803-87.088 62.463-83.597 115.724 11.987-34.428 40.178-62.194 77.6-71.293 45.395-11.050 90.78 8.558 115.605 45.657-35.26-14.113-75.939-13.731-112.565 4.729-61.844 31.178-90.86 102.825-71.718 168.035 5.318-46.243 32.658-88.895 76.645-111.043 28.901-14.48 60.259-17.767 89.545-11.655v0zM569.844 752.502l51.255-10.277c-0.757-5.833-1.3-11.422-1.604-16.782l-35.139-24.081c-6.064 17.239-10.817 34.753-14.512 51.141v0zM629.303 655.071l-17.367-11.889c-0.32 0.661-0.545 1.157-0.672 1.331-5.936 9.198-11.253 19.117-15.979 29.487l29.57-5.942c1.328-4.619 2.795-8.895 4.448-12.987v0zM592.896 679.429c-2.459 5.664-4.726 11.456-6.875 17.296l33.196 22.723c-0.539-17.774 1.222-33.027 4.401-46.212l-30.723 6.192zM557.278 524.427c20.3-6.096 43.149-1.921 60.404 13.189 1.7 1.509 3.295 3.047 4.778 4.689 9.542 10.284 12.977 21.335 12.902 34.030-5.035-16.941-16.657-31.814-33.495-40.179-28.755-14.347-62.767-4.827-80.849 20.823 18.161-11.135 41.273-12.993 61.721-2.815 22.146 11.008 36.366 30.636 37.934 52.462-2.656-2.751-6.356-4.458-10.444-4.458-8.097 0-14.657 6.698-14.657 14.971 0 8.245 6.559 14.95 14.657 14.95 2.629 0 5.068-0.768 7.196-1.999-0.769 2.303-1.67 4.628-2.789 6.917-0.096 0.256-0.372 0.954-0.821 1.803l17.228 11.765c0.544-1.227 1.141-2.454 1.702-3.675 2.948 6.448 9.392 10.981 16.902 10.981 10.315 0 18.669-8.502 18.669-19.052 0-1.824-0.332-3.653-0.823-5.351 4.705-2.523 7.926-7.43 7.926-13.205 0-1.821-0.358-3.504-0.949-5.125 13.568-2.827 28.141-1.3 41.565 5.418 20.37 10.294 33.085 30.093 35.549 51.491 8.903-30.241-4.592-63.466-33.273-77.94-17.014-8.582-35.895-8.737-52.239-2.192 11.521-17.222 32.611-26.31 53.616-21.238 17.35 4.256 30.444 17.174 35.998 33.090 1.605-24.706-14.342-47.73-38.797-53.673-21.241-5.19-42.462 4.107-53.952 21.638-0.885-17.41-8.416-34.38-22.338-46.585-24.236-21.294-59.481-20.969-83.322-0.732v0zM637.555 808.939c-7.973-22.866-13.147-43.562-15.869-61.91l-52.985 10.626c-1.206 5.509-2.289 10.784-3.27 15.937l50.515 34.598c-2.89-0.084-5.868-0.154-8.795-0.249l-42.669-29.252c-1.904 10.734-3.323 20.29-4.384 28.378-6.064-0.098-12.236-0.098-18.337-0.107-2.267-20.611-6.239-52.166-12.933-89.545l-134.518 92.199c-6.662 0.292-13.157 0.642-19.591 0.958l152.062-104.16c-2.069-11.067-4.353-22.579-6.908-34.402l-114.332-22.908c-6.94 47.289-21.134 101.234-44.707 162.245-98.592 5.761-165.131 16.524-165.131 28.862-0.014 18.39 147.249 33.31 328.877 33.31 181.623 0 328.844-14.919 328.844-33.31 0.021-14.401-89.99-26.617-215.871-31.27z" p-id="57452" fill="#707070"></path></svg>