<?xml version="1.0" standalone="no"?><!DOCTYPE svg PUBLIC "-//W3C//DTD SVG 1.1//EN" "http://www.w3.org/Graphics/SVG/1.1/DTD/svg11.dtd"><svg t="1481429530718" class="icon" style="" viewBox="0 0 1024 1024" version="1.1" xmlns="http://www.w3.org/2000/svg" p-id="10585" xmlns:xlink="http://www.w3.org/1999/xlink" width="32" height="32"><defs><style type="text/css"></style></defs><path d="M512.003582 405.724535c-34.299177 0-62.212924 27.906583-62.212924 62.212924 0 34.307364 27.913746 62.213947 62.212924 62.213947 34.304294 0 62.209854-27.906583 62.209854-62.213947C574.213435 433.630095 546.307875 405.724535 512.003582 405.724535z" p-id="10586" fill="#25a3d2"></path><path d="M279.382547 740.656747l111.682615 0L391.065162 550.97978 279.382547 550.97978 279.382547 740.656747zM313.626465 590.838579l33.721009 0 0 42.315758L313.626465 633.154337 313.626465 590.838579zM313.626465 666.580634l33.721009 0 0 42.330084L313.626465 708.910719 313.626465 666.580634z" p-id="10587" fill="#25a3d2"></path><path d="M466.718189 624.603591l90.578971 0 0 116.053156-90.578971 0 0-116.053156Z" p-id="10588" fill="#25a3d2"></path><path d="M511.999488 63.947428c-247.451812 0-448.052572 200.599737-448.052572 448.052572 0 247.450788 200.599737 448.051549 448.052572 448.051549s448.052572-200.599737 448.052572-448.051549C960.052061 264.548188 759.4513 63.947428 511.999488 63.947428zM342.583984 395.629619c0.664126-2.077312 2.094708-3.773953 4.040013-4.780887l157.016103-81.675184 0.011256-118.566396c0-2.282996 0.954745-4.412496 2.687202-6.013971 1.946328-2.049682 4.143367-3.01466 6.40999-3.01466 1.044796 0 2.058892 0.205685 3.050476 0.601704l94.459349 38.521339c0.423649 0.182149 0.679475 0.353041 0.949628 0.509606l0.893346 0.490164c0.855484 0.705058 1.509377 1.369184 1.964748 2.067079 0.36225 0.664126 0.587378 1.035586 0.74906 1.430582l0.467651 1.584078 0.109494 1.233084-0.050142 1.144056c-0.12996 1.060145-0.249687 1.344624-0.356111 1.645476l-0.333598 1.077541c-0.069585 0.112564-0.440022 0.734734-0.983397 1.423419-0.903579 1.048889-1.404999 1.508353-1.876744 1.824555-0.475837 0.303922-0.949628 0.569982-1.457188 0.76748l-90.315982 36.521798 0 36.923958L677.38112 390.849756c4.00522 2.067079 5.584182 7.019881 3.507894 11.027148-1.413186 2.730181-4.202719 16.022928-7.280824 16.022928-1.308809 0-2.576685-0.310062-3.747347-0.921999l-157.852144-81.683371-157.863401 81.683371c-1.178849 0.61296-2.438539 0.921999-3.746324 0.921999-3.075035 0-5.866614-13.292748-7.280824-16.014742C342.10917 399.937738 341.923952 397.714094 342.583984 395.629619zM793.286919 542.785144c0 4.514827-3.671623 8.194636-8.18645 8.194636l-24.115234 0 0 189.676967 32.301683 0 0 21.062711L230.712057 761.719458l0-21.062711 32.30066 0L263.012717 550.97978l-24.115234 0c-4.513804 0-8.185426-3.679809-8.185426-8.194636l0-60.531632c0-4.513804 3.671623-8.182356 8.185426-8.182356l152.166655 0 0-43.803645 0.216941-0.11154-0.216941-12.893658 120.93842-57.495482 120.948653 58.133002 0 13.005198 0 43.166125 152.149259 0c4.514827 0 8.18645 3.668553 8.18645 8.182356L793.286919 542.785144z" p-id="10589" fill="#25a3d2" class="selected"></path><path d="M632.951211 740.656747l111.666242 0L744.617453 550.97978 632.951211 550.97978 632.951211 740.656747zM680.121534 590.838579l33.721009 0 0 42.315758-33.721009 0L680.121534 590.838579zM680.121534 666.580634l33.721009 0 0 42.330084-33.721009 0L680.121534 666.580634z" p-id="10590" fill="#25a3d2"></path></svg>