<?xml version="1.0" standalone="no"?><!DOCTYPE svg PUBLIC "-//W3C//DTD SVG 1.1//EN" "http://www.w3.org/Graphics/SVG/1.1/DTD/svg11.dtd"><svg t="1481358783987" class="icon" style="" viewBox="0 0 1024 1024" version="1.1" xmlns="http://www.w3.org/2000/svg" p-id="43813" xmlns:xlink="http://www.w3.org/1999/xlink" width="32" height="32"><defs><style type="text/css"></style></defs><path d="M650.8544 293.5808c0 14.574933 6.007467 29.115733 16.349867 39.458133 10.24 10.3424 24.849067 16.349867 39.389867 16.349867s29.115733-6.007467 39.355733-16.349867c10.308267-10.3424 16.349867-24.8832 16.349867-39.458133 0-14.574933-6.0416-29.0816-16.349867-39.389867-10.3424-10.274133-24.849067-16.349867-39.355733-16.349867-14.6432 0-29.149867 6.0416-39.389867 16.349867C656.861867 264.4992 650.8544 278.971733 650.8544 293.5808L650.8544 293.5808z" p-id="43814" fill="#1296db"></path><path d="M443.1872 77.5168 251.255467 77.5168c-95.607467 0-173.738667 78.165333-173.738667 173.7728l0 118.5792 223.573333 152.507733L443.1872 77.5168 443.1872 77.5168z" p-id="43815" fill="#1296db"></path><path d="M77.5168 411.989333l0 360.6528c0 64.3072 35.328 120.661333 87.483733 150.698667l124.928-366.660267L77.5168 411.989333 77.5168 411.989333z" p-id="43816" fill="#1296db"></path><path d="M772.744533 77.5168l-293.102933 0L331.195733 542.242133l551.3216 364.817067c38.980267-31.982933 63.931733-80.349867 63.931733-134.417067L946.449067 251.2896C946.4832 155.682133 868.283733 77.5168 772.744533 77.5168L772.744533 77.5168zM706.6624 494.318933c0 0-111.547733-139.127467-111.547733-200.738133 0-61.5424 49.8688-111.445333 111.547733-111.445333 61.5424 0 111.445333 49.902933 111.445333 111.445333C818.107733 355.191467 706.6624 494.318933 706.6624 494.318933L706.6624 494.318933z" p-id="43817" fill="#1296db"></path><path d="M196.9152 937.745067c17.169067 5.666133 35.464533 8.738133 54.3744 8.738133l521.454933 0c28.023467 0 54.6816-6.724267 78.199467-18.7392L320.1024 576.546133 196.9152 937.745067 196.9152 937.745067z" p-id="43818" fill="#1296db"></path></svg>