<?xml version="1.0" standalone="no"?><!DOCTYPE svg PUBLIC "-//W3C//DTD SVG 1.1//EN" "http://www.w3.org/Graphics/SVG/1.1/DTD/svg11.dtd"><svg t="1481362207264" class="icon" style="" viewBox="0 0 1024 1024" version="1.1" xmlns="http://www.w3.org/2000/svg" p-id="54172" xmlns:xlink="http://www.w3.org/1999/xlink" width="32" height="32"><defs><style type="text/css"></style></defs><path d="M430.376057 244.405701l153.865673 0c7.042474 0 12.919123-2.326595 17.819027-7.225487 4.897881-4.775536 7.285144-10.653196 7.285144-17.63298 0-7.470179-2.387262-13.592531-7.285144-18.369078-4.899904-4.775536-10.776553-7.225487-17.819027-7.225487L430.376057 193.952669c-7.10213 0-12.97979 2.448941-17.878683 7.225487-4.837214 4.775536-7.286155 10.898899-7.286155 18.369078 0 6.979784 2.448941 12.857444 7.286155 17.63298C417.396267 242.079107 423.273927 244.405701 430.376057 244.405701z" p-id="54173" fill="#707070"></path><path d="M304.001817 633.816602c-10.286158 0-18.919129 3.551065-25.960592 10.409515-6.979784 6.978773-10.531861 15.552088-10.531861 25.714889 0 9.552082 3.551065 17.878683 10.531861 24.859479 7.041463 6.856427 15.674434 10.407493 25.960592 10.407493 9.673417 0 18.061696-3.551065 25.103159-10.407493 6.979784-6.980796 10.531861-15.307396 10.531861-24.859479 0-10.162801-3.551065-18.735104-10.531861-25.714889C322.063513 637.367667 313.675234 633.816602 304.001817 633.816602z" p-id="54174" fill="#707070"></path><path d="M278.041225 294.122636l456.026739 0 0 150.620978-456.026739 0 0-150.620978Z" p-id="54175" fill="#707070"></path><path d="M745.457258 669.941005c0-10.162801-3.551065-18.735104-10.531861-25.714889-7.040452-6.85845-15.674434-10.409515-25.961603-10.409515-10.223468 0-18.85745 3.551065-25.897902 10.409515-7.042474 6.978773-10.531861 15.552088-10.531861 25.714889 0 9.552082 3.489387 17.878683 10.531861 24.859479 7.040452 6.856427 15.674434 10.407493 25.897902 10.407493 10.287169 0 18.921151-3.551065 25.961603-10.407493C741.906193 687.819688 745.457258 679.493088 745.457258 669.941005z" p-id="54176" fill="#707070"></path><path d="M506.4823 16.514678c-277.055885 0-501.579868 224.58465-501.579868 501.580879S229.426415 1019.677448 506.4823 1019.677448c277.057908 0 501.581891-224.585662 501.581891-501.581891S783.540207 16.514678 506.4823 16.514678zM715.455206 894.281975l-21.859476-48.861524L319.369881 845.420451l-21.858464 48.861524L192.994629 894.281975l106.965727-153.07093c-21.06271-5.878671-38.390331-17.63298-51.922195-35.266971-13.470185-17.635002-20.205278-37.962626-20.205278-60.860525l0-350.960913c0-13.837223 3.673411-27.062716 10.898899-39.675469 7.347833-12.490407 16.225496-24.001035 26.756346-34.41055s21.36807-19.347845 32.389314-26.94037c11.081912-7.470179 20.695673-12.97979 28.777581-16.776559 8.081909-3.673411 17.02125-7.714871 26.695679-12.001023 9.795763-4.286152 21.36807-7.959563 34.899933-11.265936 13.470185-3.184027 29.144619-5.87766 46.900956-7.959563 17.878683-2.204249 38.696702-3.184027 62.453044-3.184027 26.941382 0 50.696713 1.22447 71.268018 3.551065 20.512659 2.448941 38.45201 5.632968 53.881752 9.673417 15.368064 3.918103 28.899927 8.572304 40.472234 13.592531 11.570284 5.020227 22.28617 10.286158 32.022276 15.674434 9.672406 5.26593 19.959575 11.388282 30.736127 18.369078 10.836209 6.979784 20.572316 14.817001 29.142597 23.633997 8.695661 8.816996 15.79678 18.85745 21.492438 30.001041 5.693636 11.265936 8.509614 23.8797 8.509614 37.716923l0 350.960913c0 22.897899-6.856427 43.225523-20.632983 60.860525-13.776556 17.63298-31.164844 29.387289-52.226543 35.266971l107.700814 153.07093L715.455206 894.280964z" p-id="54177" fill="#707070"></path><path d="M365.53575 745.251494 342.085778 795.703516 670.145758 795.703516 647.430872 745.251494Z" p-id="54178" fill="#707070"></path></svg>