<?xml version="1.0" standalone="no"?><!DOCTYPE svg PUBLIC "-//W3C//DTD SVG 1.1//EN" "http://www.w3.org/Graphics/SVG/1.1/DTD/svg11.dtd"><svg t="1481430335072" class="icon" style="" viewBox="0 0 1024 1024" version="1.1" xmlns="http://www.w3.org/2000/svg" p-id="19835" xmlns:xlink="http://www.w3.org/1999/xlink" width="19" height="19"><defs><style type="text/css"></style></defs><path d="M947.330443 280.886557L740.015166 73.57128c-13.659654-13.659654-35.779673-13.648391-49.42704 0L71.584942 692.57344c-13.648391 13.648391-13.659654 35.767386 0 49.42704l207.315277 207.315277c13.659654 13.659654 35.779673 13.648391 49.42704 0l619.00216-619.00216c13.649415-13.647367 13.661702-35.767386 0.001024-49.42704zM303.614763 875.175196L145.726527 717.28696l39.749276-39.749276 27.055146 27.055146c13.659654 13.659654 35.779673 13.648391 49.42704 0 13.648391-13.648391 13.659654-35.767386 0-49.427041l-27.055146-27.055145 39.749276-39.749276 27.055146 27.055145c13.659654 13.659654 35.779673 13.648391 49.42704 0 13.648391-13.648391 13.659654-35.767386 0-49.428064l-27.055146-27.055146 39.749276-39.749276 27.055146 27.055146c13.659654 13.659654 35.779673 13.648391 49.42704 0 13.648391-13.648391 13.660678-35.767386 0-49.428064l-27.055146-27.055146 39.749276-39.749276 27.055146 27.055146c13.659654 13.659654 35.779673 13.648391 49.42704 0 13.648391-13.648391 13.660678-35.767386 0-49.428064l-27.055145-27.055146 39.749276-39.749276 27.055146 27.055146c13.659654 13.659654 35.779673 13.648391 49.42704 0 13.648391-13.648391 13.659654-35.767386 0-49.42704l-27.055146-27.055146 39.738013-39.738013 27.055146 27.055145c13.659654 13.660678 35.779673 13.648391 49.42704 0 13.648391-13.648391 13.659654-35.767386 0-49.42704l-27.055146-27.055146 34.52439-34.524389 157.888236 157.888237-569.571024 569.574095z" fill="#3E3A39" p-id="19836"></path></svg>